<svg width="433" height="437" viewBox="0 0 433 437" fill="none" xmlns="http://www.w3.org/2000/svg">
<g id="illus">
<path id="Vector" opacity="0.5" fill-rule="evenodd" clip-rule="evenodd" d="M166.765 77.7851C198.003 61.4816 239.424 43.2962 269.431 61.7674C299.705 80.4028 283.8 130.986 302.405 161.279C321.8 192.861 376.929 202.569 378.639 239.591C380.322 276.007 336.035 296.843 309.839 322.194C289.595 341.785 264.708 353.534 242.712 371.134C216.149 392.388 200.45 441.432 166.765 436.677C130.838 431.607 131.623 372.629 102.263 351.312C77.5439 333.364 34.6764 350.715 15.5554 326.892C-2.98614 303.791 13.6323 269.194 12.5926 239.591C11.5098 208.76 -12.9157 170.086 9.29641 148.676C34.3101 124.566 79.9646 158.38 111.644 144.118C138.313 132.112 140.837 91.3173 166.765 77.7851Z" fill="#B3D6FF"/>
<g id="Group">
<path id="Vector_2" d="M141.65 176.379L145.943 189.564L151.769 184.658L148.703 174.233L141.65 176.379Z" fill="#FFB9B9"/>
<path id="Vector_3" d="M86.4571 120.266L87.9902 140.81L125.092 141.73L141.343 178.832L150.235 175.153C150.235 175.153 140.117 140.197 135.517 129.159C130.918 118.12 113.44 126.092 113.44 126.092L111.907 123.026L86.4571 120.266Z" fill="#2F2E41"/>
<path id="Vector_4" d="M144.103 187.111C144.103 187.111 144.716 196.923 145.636 197.536C146.556 198.15 153.608 196.923 153.608 196.923C153.608 196.923 155.727 197.394 164.34 195.083C174.023 192.486 163.114 188.644 163.114 188.644C163.114 188.644 156.061 184.045 152.995 181.898C149.929 179.752 147.782 184.351 147.782 184.351C148.396 186.191 144.103 187.111 144.103 187.111Z" fill="#2F2E41"/>
<path id="Vector_5" d="M389.428 226.84L390.404 261.004L400.816 301.025C400.816 301.025 398.539 307.858 400.165 309.485C401.792 311.112 409.276 314.04 409.276 314.04L403.094 228.793L389.428 226.84Z" fill="#2F2E41"/>
<path id="Vector_6" d="M412.033 309.318C412.033 309.318 415.746 317.487 410.548 318.229C405.35 318.972 381.339 320.952 382.824 316.744C384.309 312.536 402.379 308.575 402.379 308.575L412.033 309.318Z" fill="#2F2E41"/>
<path id="Vector_7" d="M425.87 196.581C425.87 196.581 421.965 217.73 419.362 221.309C416.759 224.888 420.664 250.918 420.664 250.918C420.664 250.918 426.52 288.336 423.918 294.192C421.315 300.049 421.965 298.097 422.291 301.35C422.616 304.604 423.267 307.207 422.291 310.135C421.315 313.064 421.315 312.738 420.989 314.365C420.664 315.992 420.989 324.777 420.989 324.777C420.989 324.777 406.998 329.658 404.721 322.5C404.721 322.5 407.974 317.944 406.998 314.365C405.98 310.763 405.434 307.045 405.371 303.303V296.47L390.404 240.506L386.825 220.333C386.825 220.333 387.801 199.835 391.38 197.882C394.96 195.93 425.87 196.581 425.87 196.581Z" fill="#2F2E41"/>
<path id="Vector_8" d="M420.013 323.15C420.013 323.15 424.894 333.888 418.061 334.864C411.228 335.84 379.667 338.443 381.619 332.911C383.572 327.38 407.324 322.174 407.324 322.174L420.013 323.15Z" fill="#2F2E41"/>
<path id="Vector_9" d="M413.828 102.888C421.016 102.888 426.842 97.0607 426.842 89.8728C426.842 82.6849 421.016 76.858 413.828 76.858C406.64 76.858 400.813 82.6849 400.813 89.8728C400.813 97.0607 406.64 102.888 413.828 102.888Z" fill="#FFB9B9"/>
<path id="Vector_10" d="M422.973 95.6241L422.731 112.245L406.775 112.299C406.775 112.299 410.824 99.2878 409.01 96.567C407.196 93.8463 422.973 95.6241 422.973 95.6241Z" fill="#FFB9B9"/>
<path id="Vector_11" d="M399.189 121.42C399.189 121.42 410.577 106.779 419.362 112.961C428.147 119.143 431.401 133.784 431.401 133.784L429.449 174.781C429.449 174.781 424.568 180.638 427.497 184.542C430.425 188.447 432.052 187.471 429.774 190.399C427.497 193.327 424.894 195.605 425.87 196.581C426.846 197.557 424.894 198.208 424.894 198.208L390.404 199.184C390.404 199.184 391.38 197.882 388.452 193.978C385.524 190.074 389.103 184.868 388.452 182.915C387.801 180.963 387.151 183.241 386.825 178.686C386.5 174.13 399.189 121.42 399.189 121.42Z" fill="#3F3D56"/>
<path id="Vector_12" d="M402.443 205.366C402.443 205.366 401.792 213.5 396.912 214.802C395.082 215.29 393.709 214.359 392.708 213.006C391.774 211.709 391.25 210.161 391.204 208.563C391.159 206.965 391.593 205.389 392.453 204.041L393.658 202.112L402.443 205.366Z" fill="#FFB9B9"/>
<path id="Vector_13" d="M432.54 104.989C432.54 104.989 432.865 111.496 432.54 112.473C432.215 113.449 431.889 114.425 432.54 115.401C433.191 116.377 432.865 119.631 432.215 119.956C431.564 120.281 433.516 123.21 432.865 125.162C432.215 127.114 431.564 127.765 431.238 128.416C430.913 129.066 430.389 130.232 430.389 130.232C430.389 130.232 420.827 109.87 413.018 114.75C405.209 119.631 399.027 121.258 399.027 121.258C399.027 121.258 403.256 98.4816 432.54 104.989Z" fill="#3F3D56"/>
<path id="Vector_14" d="M418.386 120.119C418.386 120.119 428.798 121.095 428.147 134.76C427.497 148.426 429.123 169.901 429.123 169.901C429.123 169.901 411.228 197.232 408.3 199.184C405.371 201.136 405.046 200.811 405.371 202.438C405.697 204.064 406.022 205.366 404.721 206.667C403.952 207.441 403.075 208.099 402.118 208.62C402.118 208.62 391.706 205.041 392.682 201.787C393.658 198.533 398.213 193.327 398.213 193.327C398.213 193.327 406.022 180.638 406.347 178.686C406.673 176.733 406.673 177.059 407.649 176.083C408.625 175.106 411.228 171.202 411.228 169.25V163.068L408.5 130.031C408.376 128.685 408.539 127.329 408.976 126.05C409.414 124.772 410.118 123.601 411.04 122.613C412.589 120.993 414.929 119.704 418.386 120.119Z" fill="#3F3D56"/>
<path id="Vector_15" d="M405.434 79.8361C404.586 80.071 403.693 80.0912 402.835 79.8948C401.977 79.6983 401.182 79.2915 400.52 78.7109C399.248 77.5023 398.821 75.4084 399.726 73.9054C400.507 72.6074 402.027 71.9727 403.473 71.5214C406.664 70.527 409.986 70.0203 413.327 70.0184C414.921 70.0179 416.584 70.1537 417.947 70.978C418.622 71.3859 419.193 71.946 419.86 72.3663C421.086 73.139 422.559 73.3958 423.905 73.9326C425.282 74.4921 426.522 75.3408 427.543 76.4213C428.563 77.5017 429.339 78.7887 429.819 80.1952C430.128 81.1491 430.321 82.1367 430.394 83.1367C430.614 85.876 430.13 88.6261 428.987 91.1257C427.172 95.0843 423.717 98.4129 423.228 102.741C421.368 101.179 420.823 98.5599 419.382 96.6048C418.31 95.1592 416.779 94.12 415.039 93.657C414.553 93.5927 414.096 93.3884 413.724 93.0691C413.474 92.723 413.331 92.3108 413.313 91.884L412.42 85.4543C412.238 84.1457 411.992 82.7157 410.988 81.8573C410.358 81.3885 409.629 81.0718 408.856 80.932C407.029 80.4776 405.167 80.1741 403.29 80.0245" fill="#2F2E41"/>
<path id="Vector_16" opacity="0.1" d="M427.541 174.548L409.276 198.251C409.276 198.251 426.094 184.192 427.541 174.548Z" fill="black"/>
<path id="Vector_17" opacity="0.1" d="M410.009 148.305L410.182 170.691L399.574 186.603L408.253 168.762L410.009 148.305Z" fill="black"/>
<path id="Vector_18" d="M298.766 137.682H188.135V135.402H137.971V137.682H26.8843C24.8996 137.682 22.9962 138.47 21.5928 139.874C20.1894 141.277 19.401 143.181 19.401 145.165V296.653C19.401 298.637 20.1894 300.541 21.5928 301.944C22.9962 303.348 24.8996 304.136 26.8843 304.136H298.766C299.749 304.136 300.722 303.943 301.63 303.566C302.538 303.19 303.363 302.639 304.057 301.944C304.752 301.249 305.304 300.424 305.68 299.517C306.056 298.609 306.249 297.635 306.249 296.653V145.165C306.249 144.183 306.056 143.21 305.68 142.302C305.304 141.394 304.752 140.569 304.057 139.874C303.363 139.179 302.538 138.628 301.63 138.252C300.722 137.876 299.749 137.682 298.766 137.682Z" fill="#3F3D56"/>
<path id="Vector_19" opacity="0.1" d="M296.216 150.907H29.4338V301.4H296.216V150.907Z" fill="black"/>
<path id="Vector_20" d="M162.597 146.803C164.108 146.803 165.333 145.578 165.333 144.067C165.333 142.555 164.108 141.33 162.597 141.33C161.086 141.33 159.861 142.555 159.861 144.067C159.861 145.578 161.086 146.803 162.597 146.803Z" fill="#6C63FF"/>
<path id="Vector_21" d="M294.98 150.832H29.8817V301.269H294.98V150.832Z" fill="#E6E6E6"/>
<path id="Vector_22" d="M287.399 161.111H37.4621V291.788H287.399V161.111Z" fill="white"/>
<path id="Vector_23" d="M124.394 174.67H60.1723V278.229H124.394V174.67Z" fill="#E6E6E6"/>
<path id="Vector_24" d="M188.999 174.67H135.48V203.176H188.999V174.67Z" fill="#6C63FF"/>
<path id="Vector_25" d="M188.999 211.114H135.48V241.785H188.999V211.114Z" fill="#E6E6E6"/>
<path id="Vector_26" d="M188.999 249.724H135.48V278.229H188.999V249.724Z" fill="#E6E6E6"/>
<path id="Vector_27" d="M264.689 174.67H200.467V219.801H264.689V174.67Z" fill="#E6E6E6"/>
<path id="Vector_28" d="M264.689 233.099H200.467V278.229H264.689V233.099Z" fill="#6C63FF"/>
<path id="Vector_29" d="M313.74 298.664H287.704V296.788C287.704 296.739 287.694 296.691 287.675 296.645C287.657 296.6 287.629 296.559 287.595 296.525C287.56 296.49 287.519 296.463 287.474 296.444C287.429 296.425 287.381 296.416 287.332 296.416H278.405C278.356 296.416 278.308 296.425 278.263 296.444C278.218 296.463 278.177 296.49 278.142 296.525C278.107 296.559 278.08 296.6 278.061 296.645C278.043 296.691 278.033 296.739 278.033 296.788V298.664H272.454V296.788C272.454 296.739 272.444 296.691 272.426 296.645C272.407 296.6 272.379 296.559 272.345 296.525C272.31 296.49 272.269 296.463 272.224 296.444C272.179 296.425 272.131 296.416 272.082 296.416H263.155C263.106 296.416 263.058 296.425 263.013 296.444C262.968 296.463 262.927 296.49 262.892 296.525C262.858 296.559 262.83 296.6 262.812 296.645C262.793 296.691 262.783 296.739 262.783 296.788V298.664H257.204V296.788C257.204 296.739 257.194 296.691 257.176 296.645C257.157 296.6 257.13 296.559 257.095 296.525C257.061 296.49 257.02 296.463 256.974 296.444C256.929 296.425 256.881 296.416 256.832 296.416H247.905C247.857 296.416 247.808 296.425 247.763 296.444C247.718 296.463 247.677 296.49 247.642 296.525C247.608 296.559 247.58 296.6 247.562 296.645C247.543 296.691 247.533 296.739 247.533 296.788V298.664H241.954V296.788C241.954 296.739 241.945 296.691 241.926 296.645C241.907 296.6 241.88 296.559 241.845 296.525C241.811 296.49 241.77 296.463 241.725 296.444C241.68 296.425 241.631 296.416 241.582 296.416H232.656C232.607 296.416 232.558 296.425 232.513 296.444C232.468 296.463 232.427 296.49 232.393 296.525C232.358 296.559 232.331 296.6 232.312 296.645C232.293 296.691 232.284 296.739 232.284 296.788V298.664H226.704V296.788C226.704 296.739 226.695 296.691 226.676 296.645C226.657 296.6 226.63 296.559 226.596 296.525C226.561 296.49 226.52 296.463 226.475 296.444C226.43 296.425 226.381 296.416 226.333 296.416H217.406C217.357 296.416 217.309 296.425 217.263 296.444C217.218 296.463 217.177 296.49 217.143 296.525C217.108 296.559 217.081 296.6 217.062 296.645C217.043 296.691 217.034 296.739 217.034 296.788V298.664H211.455V296.788C211.455 296.739 211.445 296.691 211.426 296.645C211.408 296.6 211.38 296.559 211.346 296.525C211.311 296.49 211.27 296.463 211.225 296.444C211.18 296.425 211.132 296.416 211.083 296.416H202.156C202.107 296.416 202.059 296.425 202.014 296.444C201.969 296.463 201.928 296.49 201.893 296.525C201.858 296.559 201.831 296.6 201.812 296.645C201.794 296.691 201.784 296.739 201.784 296.788V298.664H196.205V296.788C196.205 296.739 196.195 296.691 196.177 296.645C196.158 296.6 196.13 296.559 196.096 296.525C196.061 296.49 196.02 296.463 195.975 296.444C195.93 296.425 195.882 296.416 195.833 296.416H125.907C125.808 296.416 125.714 296.455 125.644 296.525C125.574 296.595 125.535 296.689 125.535 296.788V298.664H119.956V296.788C119.956 296.739 119.946 296.691 119.928 296.645C119.909 296.6 119.881 296.559 119.847 296.525C119.812 296.49 119.771 296.463 119.726 296.444C119.681 296.425 119.633 296.416 119.584 296.416H110.657C110.559 296.416 110.464 296.455 110.394 296.525C110.324 296.595 110.285 296.689 110.285 296.788V298.664H104.706V296.788C104.706 296.739 104.696 296.691 104.678 296.645C104.659 296.6 104.632 296.559 104.597 296.525C104.563 296.49 104.522 296.463 104.476 296.444C104.431 296.425 104.383 296.416 104.334 296.416H95.4074C95.3088 296.416 95.2141 296.455 95.1444 296.525C95.0746 296.595 95.0355 296.689 95.0355 296.788V298.664H89.4562V296.788C89.4562 296.739 89.4466 296.691 89.4279 296.645C89.4092 296.6 89.3818 296.559 89.3473 296.525C89.3128 296.49 89.2718 296.463 89.2267 296.444C89.1815 296.425 89.1332 296.416 89.0843 296.416H80.1576C80.0589 296.416 79.9643 296.455 79.8946 296.525C79.8248 296.595 79.7856 296.689 79.7856 296.788V298.664H74.2064V296.788C74.2064 296.739 74.1968 296.691 74.1781 296.645C74.1594 296.6 74.132 296.559 74.0975 296.525C74.063 296.49 74.022 296.463 73.9769 296.444C73.9317 296.425 73.8834 296.416 73.8345 296.416H64.9078C64.8092 296.416 64.7145 296.455 64.6448 296.525C64.575 296.595 64.5359 296.689 64.5359 296.788V298.664H58.9567V296.788C58.9567 296.739 58.947 296.691 58.9283 296.645C58.9097 296.6 58.8823 296.559 58.8477 296.525C58.8132 296.49 58.7722 296.463 58.7271 296.444C58.6819 296.425 58.6336 296.416 58.5847 296.416H49.658C49.5593 296.416 49.4647 296.455 49.395 296.525C49.3252 296.595 49.286 296.689 49.286 296.788V298.664H43.7068V296.788C43.7068 296.739 43.6972 296.691 43.6785 296.645C43.6598 296.6 43.6324 296.559 43.5979 296.525C43.5634 296.49 43.5224 296.463 43.4772 296.444C43.4321 296.425 43.3838 296.416 43.3349 296.416H34.4082C34.3095 296.416 34.2149 296.455 34.1452 296.525C34.0754 296.595 34.0362 296.689 34.0362 296.788V298.664H16.9267C14.5592 298.664 12.2887 299.604 10.6146 301.278C8.94049 302.952 8 305.223 8 307.59V311.627C8 313.994 8.9405 316.265 10.6146 317.939C12.2887 319.613 14.5592 320.554 16.9267 320.554H313.74C316.107 320.554 318.378 319.613 320.052 317.939C321.726 316.265 322.667 313.994 322.667 311.627V307.59C322.667 305.223 321.726 302.952 320.052 301.278C318.378 299.604 316.107 298.664 313.74 298.664Z" fill="#3F3D56"/>
<path id="Vector_30" d="M74.708 37.8781C73.0831 40.0491 72.0994 42.6322 71.8685 45.3341C71.5376 48.623 70.5746 53.8833 67.7725 56.6483C63.5032 60.8609 62.0802 64.0204 62.0802 64.0204L63.5033 65.6001C63.5033 62.4406 65.4007 61.914 65.4007 61.914L64.9263 65.6001C77.734 77.7114 106.196 66.6532 106.196 66.6532L105.247 57.1748C107.619 58.228 108.567 65.6001 108.567 65.6001L112.362 64.5469C112.362 64.5469 105.721 52.9623 101.452 42.4307C97.1827 31.8991 90.5417 34.532 90.5417 34.532C82.7148 30.3486 77.5452 34.2281 74.708 37.8781Z" fill="#2F2E41"/>
<path id="Vector_31" d="M119.266 43.3029L123.866 13.2535C123.866 13.2535 118.96 1.29503 127.238 0.0685215C135.517 -1.15799 129.998 14.48 129.998 14.48L127.238 43.3029H119.266Z" fill="#FFB9B9"/>
<path id="Vector_32" d="M115.587 184.658C117.12 187.111 117.426 199.683 117.426 199.683L128.158 192.937L125.092 181.898L115.587 184.658Z" fill="#FFB9B9"/>
<path id="Vector_33" d="M100.562 118.733C100.562 118.733 87.0703 118.733 79.7112 123.026C77.3458 124.406 76.6594 126.894 76.8171 129.636C77.229 136.8 83.0794 142.457 90.2409 142.9L110.987 144.183C107.921 152.769 114.973 186.191 114.973 186.191L126.012 184.658C126.012 184.658 124.479 173.313 124.785 172.7C125.092 172.086 127.852 148.169 126.012 135.598C124.172 123.026 99.0288 128.239 99.0288 128.239L100.562 118.733Z" fill="#2F2E41"/>
<path id="Vector_34" d="M116.813 196.923C116.813 196.923 115.893 205.815 116.2 207.042C116.507 208.268 129.078 208.882 140.423 205.509C151.769 202.136 138.89 198.456 138.89 198.456C138.89 198.456 131.225 193.244 129.078 191.404C126.932 189.564 123.866 193.857 123.866 193.857C123.252 196.616 116.813 196.923 116.813 196.923Z" fill="#2F2E41"/>
<path id="Vector_35" d="M97.9663 55.4958C98.9428 49.4781 94.8561 43.8081 88.8384 42.8316C82.8207 41.8551 77.1507 45.9417 76.1742 51.9595C75.1976 57.9772 79.2843 63.6472 85.3021 64.6237C91.3198 65.6002 96.9898 61.5135 97.9663 55.4958Z" fill="#FFB9B9"/>
<path id="Vector_36" d="M82.4709 62.0072C86.4571 67.8331 81.551 71.206 81.551 71.206L79.4047 87.1506C79.4047 87.1506 102.402 89.297 106.388 86.2307C110.374 83.1645 101.788 73.0458 98.7222 72.1259C95.6559 71.206 95.0426 58.6343 95.0426 58.6343L82.4709 62.0072Z" fill="#FFB9B9"/>
<path id="Vector_37" d="M83.071 69.5724L70.9724 67.6798L69.5926 80.7115C69.5926 80.7115 70.2059 109.841 69.5926 115.054C68.9793 120.266 80.0179 126.092 80.0179 126.092C80.0179 126.092 95.9625 124.866 99.0288 123.333C102.095 121.799 111.907 124.866 111.907 124.866C113 124.926 114.094 124.77 115.127 124.406C116.966 123.793 110.374 80.0982 110.374 80.0982L104.548 66.6066L97.4957 69.3663L95.3493 79.485L83.071 69.5724Z" fill="#6C63FF"/>
<path id="Vector_38" d="M109.148 79.7914L121.413 64.1534L129.998 42.9962L118.04 38.397L113.134 55.8746L104.548 66.3001L104.241 68.1397L109.148 79.7914Z" fill="#6C63FF"/>
<path id="Vector_39" d="M70.4994 103.596L100.877 104.739C100.877 104.739 112.198 98.502 114.361 106.587C116.523 114.672 100.358 110.972 100.358 110.972L71.4083 111.516L70.4994 103.596Z" fill="#FFB9B9"/>
<path id="Vector_40" d="M73.1188 101.409L87.2236 102.329L89.0634 111.834C89.0634 111.834 71.8923 111.527 65.1465 111.221C58.4007 110.914 65.1465 82.3979 66.0664 73.8123C66.9863 65.2268 71.5857 67.6798 71.5857 67.6798L74.3453 69.8262L73.1188 101.409Z" fill="#6C63FF"/>
<path id="Vector_41" opacity="0.15" d="M75.5721 98.3423L87.8372 103.249L74.3454 100.489L73.4254 83.011L75.5721 98.3423Z" fill="black"/>
<path id="Vector_42" d="M98.727 50.0536L78.4749 50.5358L76.064 40.4097H98.727V50.0536Z" fill="#2F2E41"/>
</g>
</g>
</svg>
