<svg width="884" height="1002" viewBox="0 0 884 1002" fill="none" xmlns="http://www.w3.org/2000/svg">
<path d="M30.5 553.427C-10.1666 529.948 -10.1666 471.25 30.5 447.771L791.75 8.2636C832.417 -15.2154 883.25 14.1326 883.25 61.0907V940.107C883.25 987.065 832.417 1016.41 791.75 992.934L30.5 553.427Z" fill="#80BAFF"/>
<path opacity="0.5" fill-rule="evenodd" clip-rule="evenodd" d="M471.765 398.884C503.003 382.581 544.424 364.395 574.431 382.866C604.705 401.502 588.8 452.085 607.405 482.378C626.8 513.96 681.929 523.668 683.639 560.69C685.322 597.106 641.035 617.942 614.839 643.293C594.595 662.884 569.708 674.633 547.712 692.233C521.149 713.487 505.45 762.531 471.765 757.776C435.838 752.706 436.623 693.728 407.263 672.411C382.544 654.463 339.676 671.814 320.555 647.991C302.014 624.89 318.632 590.293 317.593 560.69C316.51 529.859 292.084 491.185 314.296 469.775C339.31 445.665 384.965 479.479 416.644 465.217C443.313 453.211 445.837 412.416 471.765 398.884Z" fill="#B3D6FF"/>
<path d="M446.65 497.478L450.943 510.663L456.769 505.757L453.703 495.332L446.65 497.478Z" fill="#FFB9B9"/>
<path d="M391.457 441.365L392.99 461.909L430.092 462.829L446.343 499.931L455.235 496.252C455.235 496.252 445.117 461.296 440.517 450.258C435.918 439.219 418.44 447.191 418.44 447.191L416.907 444.125L391.457 441.365Z" fill="#2F2E41"/>
<path d="M449.103 508.21C449.103 508.21 449.716 518.022 450.636 518.635C451.556 519.249 458.608 518.022 458.608 518.022C458.608 518.022 460.727 518.493 469.34 516.182C479.023 513.585 468.114 509.743 468.114 509.743C468.114 509.743 461.061 505.144 457.995 502.997C454.929 500.851 452.782 505.45 452.782 505.45C453.396 507.29 449.103 508.21 449.103 508.21Z" fill="#2F2E41"/>
<path d="M694.428 547.939L695.404 582.103L705.816 622.124C705.816 622.124 703.539 628.957 705.165 630.584C706.792 632.211 714.276 635.139 714.276 635.139L708.094 549.892L694.428 547.939Z" fill="#2F2E41"/>
<path d="M717.033 630.417C717.033 630.417 720.746 638.586 715.548 639.328C710.35 640.071 686.339 642.051 687.824 637.843C689.309 633.635 707.379 629.674 707.379 629.674L717.033 630.417Z" fill="#2F2E41"/>
<path d="M730.87 517.68C730.87 517.68 726.965 538.829 724.362 542.408C721.759 545.987 725.664 572.017 725.664 572.017C725.664 572.017 731.52 609.435 728.918 615.291C726.315 621.148 726.965 619.196 727.291 622.449C727.616 625.703 728.267 628.306 727.291 631.234C726.315 634.163 726.315 633.837 725.989 635.464C725.664 637.091 725.989 645.876 725.989 645.876C725.989 645.876 711.998 650.757 709.721 643.599C709.721 643.599 712.974 639.043 711.998 635.464C710.98 631.862 710.434 628.144 710.371 624.402V617.569L695.404 561.605L691.825 541.432C691.825 541.432 692.801 520.934 696.38 518.981C699.96 517.029 730.87 517.68 730.87 517.68Z" fill="#2F2E41"/>
<path d="M725.013 644.249C725.013 644.249 729.894 654.987 723.061 655.963C716.228 656.939 684.667 659.542 686.619 654.01C688.572 648.479 712.324 643.273 712.324 643.273L725.013 644.249Z" fill="#2F2E41"/>
<path d="M718.828 423.987C726.016 423.987 731.842 418.16 731.842 410.972C731.842 403.784 726.016 397.957 718.828 397.957C711.64 397.957 705.813 403.784 705.813 410.972C705.813 418.16 711.64 423.987 718.828 423.987Z" fill="#FFB9B9"/>
<path d="M727.973 416.723L727.731 433.344L711.775 433.398C711.775 433.398 715.824 420.387 714.01 417.666C712.196 414.945 727.973 416.723 727.973 416.723Z" fill="#FFB9B9"/>
<path d="M704.189 442.519C704.189 442.519 715.577 427.878 724.362 434.06C733.147 440.242 736.401 454.883 736.401 454.883L734.449 495.88C734.449 495.88 729.568 501.737 732.497 505.641C735.425 509.546 737.052 508.57 734.774 511.498C732.497 514.426 729.894 516.704 730.87 517.68C731.846 518.656 729.894 519.307 729.894 519.307L695.404 520.283C695.404 520.283 696.38 518.981 693.452 515.077C690.524 511.173 694.103 505.967 693.452 504.014C692.801 502.062 692.151 504.34 691.825 499.785C691.5 495.229 704.189 442.519 704.189 442.519Z" fill="#3F3D56"/>
<path d="M707.443 526.465C707.443 526.465 706.792 534.599 701.912 535.901C700.082 536.389 698.709 535.458 697.708 534.105C696.774 532.808 696.25 531.26 696.204 529.662C696.159 528.064 696.593 526.488 697.453 525.14L698.658 523.211L707.443 526.465Z" fill="#FFB9B9"/>
<path d="M737.54 426.088C737.54 426.088 737.865 432.595 737.54 433.572C737.215 434.548 736.889 435.524 737.54 436.5C738.191 437.476 737.865 440.73 737.215 441.055C736.564 441.38 738.516 444.309 737.865 446.261C737.215 448.213 736.564 448.864 736.238 449.515C735.913 450.165 735.389 451.331 735.389 451.331C735.389 451.331 725.827 430.969 718.018 435.849C710.209 440.73 704.027 442.357 704.027 442.357C704.027 442.357 708.256 419.581 737.54 426.088Z" fill="#3F3D56"/>
<path d="M723.386 441.218C723.386 441.218 733.798 442.194 733.147 455.859C732.497 469.525 734.123 491 734.123 491C734.123 491 716.228 518.331 713.3 520.283C710.371 522.235 710.046 521.91 710.371 523.537C710.697 525.163 711.022 526.465 709.721 527.766C708.952 528.54 708.075 529.198 707.118 529.719C707.118 529.719 696.706 526.14 697.682 522.886C698.658 519.632 703.213 514.426 703.213 514.426C703.213 514.426 711.022 501.737 711.347 499.785C711.673 497.832 711.673 498.158 712.649 497.182C713.625 496.205 716.228 492.301 716.228 490.349V484.167L713.5 451.13C713.376 449.784 713.539 448.428 713.976 447.149C714.414 445.871 715.118 444.7 716.04 443.712C717.589 442.092 719.929 440.803 723.386 441.218Z" fill="#3F3D56"/>
<path d="M710.434 400.935C709.586 401.17 708.693 401.19 707.835 400.994C706.977 400.797 706.182 400.39 705.52 399.81C704.248 398.601 703.821 396.507 704.726 395.004C705.507 393.706 707.027 393.072 708.473 392.62C711.664 391.626 714.986 391.119 718.327 391.117C719.921 391.117 721.584 391.253 722.947 392.077C723.622 392.485 724.193 393.045 724.86 393.465C726.086 394.238 727.559 394.495 728.905 395.032C730.282 395.591 731.522 396.44 732.543 397.52C733.563 398.601 734.339 399.888 734.819 401.294C735.128 402.248 735.321 403.236 735.394 404.236C735.614 406.975 735.13 409.725 733.987 412.225C732.172 416.183 728.717 419.512 728.228 423.84C726.368 422.278 725.823 419.659 724.382 417.704C723.31 416.258 721.779 415.219 720.039 414.756C719.553 414.692 719.096 414.487 718.724 414.168C718.474 413.822 718.331 413.41 718.313 412.983L717.42 406.553C717.238 405.245 716.992 403.815 715.988 402.956C715.358 402.488 714.629 402.171 713.856 402.031C712.029 401.577 710.167 401.273 708.29 401.123" fill="#2F2E41"/>
<path opacity="0.1" d="M732.541 495.647L714.276 519.35C714.276 519.35 731.094 505.291 732.541 495.647Z" fill="black"/>
<path opacity="0.1" d="M715.009 469.404L715.182 491.79L704.574 507.702L713.253 489.861L715.009 469.404Z" fill="black"/>
<path d="M603.766 458.781H493.135V456.501H442.971V458.781H331.884C329.9 458.781 327.996 459.569 326.593 460.973C325.189 462.376 324.401 464.28 324.401 466.264V617.752C324.401 619.736 325.189 621.64 326.593 623.043C327.996 624.447 329.9 625.235 331.884 625.235H603.766C604.749 625.235 605.722 625.042 606.63 624.665C607.538 624.289 608.363 623.738 609.057 623.043C609.752 622.348 610.304 621.523 610.68 620.616C611.056 619.708 611.249 618.734 611.249 617.752V466.264C611.249 465.282 611.056 464.309 610.68 463.401C610.304 462.493 609.752 461.668 609.057 460.973C608.363 460.278 607.538 459.727 606.63 459.351C605.722 458.975 604.749 458.781 603.766 458.781Z" fill="#3F3D56"/>
<path opacity="0.1" d="M601.216 472.006H334.434V622.499H601.216V472.006Z" fill="black"/>
<path d="M467.597 467.902C469.108 467.902 470.333 466.677 470.333 465.166C470.333 463.654 469.108 462.429 467.597 462.429C466.086 462.429 464.861 463.654 464.861 465.166C464.861 466.677 466.086 467.902 467.597 467.902Z" fill="#6C63FF"/>
<path d="M599.98 471.931H334.882V622.368H599.98V471.931Z" fill="#E6E6E6"/>
<path d="M592.399 482.21H342.462V612.887H592.399V482.21Z" fill="white"/>
<path d="M429.394 495.769H365.172V599.328H429.394V495.769Z" fill="#E6E6E6"/>
<path d="M493.999 495.769H440.48V524.275H493.999V495.769Z" fill="#6C63FF"/>
<path d="M493.999 532.213H440.48V562.884H493.999V532.213Z" fill="#E6E6E6"/>
<path d="M493.999 570.823H440.48V599.328H493.999V570.823Z" fill="#E6E6E6"/>
<path d="M569.689 495.769H505.467V540.9H569.689V495.769Z" fill="#E6E6E6"/>
<path d="M569.689 554.198H505.467V599.328H569.689V554.198Z" fill="#6C63FF"/>
<path d="M618.74 619.763H592.704V617.887C592.704 617.838 592.694 617.79 592.675 617.744C592.657 617.699 592.629 617.658 592.595 617.624C592.56 617.589 592.519 617.562 592.474 617.543C592.429 617.524 592.381 617.515 592.332 617.515H583.405C583.356 617.515 583.308 617.524 583.263 617.543C583.218 617.562 583.177 617.589 583.142 617.624C583.107 617.658 583.08 617.699 583.061 617.744C583.043 617.79 583.033 617.838 583.033 617.887V619.763H577.454V617.887C577.454 617.838 577.444 617.79 577.426 617.744C577.407 617.699 577.379 617.658 577.345 617.624C577.31 617.589 577.269 617.562 577.224 617.543C577.179 617.524 577.131 617.515 577.082 617.515H568.155C568.106 617.515 568.058 617.524 568.013 617.543C567.968 617.562 567.927 617.589 567.892 617.624C567.858 617.658 567.83 617.699 567.812 617.744C567.793 617.79 567.783 617.838 567.783 617.887V619.763H562.204V617.887C562.204 617.838 562.194 617.79 562.176 617.744C562.157 617.699 562.13 617.658 562.095 617.624C562.061 617.589 562.02 617.562 561.974 617.543C561.929 617.524 561.881 617.515 561.832 617.515H552.905C552.857 617.515 552.808 617.524 552.763 617.543C552.718 617.562 552.677 617.589 552.642 617.624C552.608 617.658 552.58 617.699 552.562 617.744C552.543 617.79 552.533 617.838 552.533 617.887V619.763H546.954V617.887C546.954 617.838 546.945 617.79 546.926 617.744C546.907 617.699 546.88 617.658 546.845 617.624C546.811 617.589 546.77 617.562 546.725 617.543C546.68 617.524 546.631 617.515 546.582 617.515H537.656C537.607 617.515 537.558 617.524 537.513 617.543C537.468 617.562 537.427 617.589 537.393 617.624C537.358 617.658 537.331 617.699 537.312 617.744C537.293 617.79 537.284 617.838 537.284 617.887V619.763H531.704V617.887C531.704 617.838 531.695 617.79 531.676 617.744C531.657 617.699 531.63 617.658 531.596 617.624C531.561 617.589 531.52 617.562 531.475 617.543C531.43 617.524 531.381 617.515 531.333 617.515H522.406C522.357 617.515 522.309 617.524 522.263 617.543C522.218 617.562 522.177 617.589 522.143 617.624C522.108 617.658 522.081 617.699 522.062 617.744C522.043 617.79 522.034 617.838 522.034 617.887V619.763H516.455V617.887C516.455 617.838 516.445 617.79 516.426 617.744C516.408 617.699 516.38 617.658 516.346 617.624C516.311 617.589 516.27 617.562 516.225 617.543C516.18 617.524 516.132 617.515 516.083 617.515H507.156C507.107 617.515 507.059 617.524 507.014 617.543C506.969 617.562 506.928 617.589 506.893 617.624C506.858 617.658 506.831 617.699 506.812 617.744C506.794 617.79 506.784 617.838 506.784 617.887V619.763H501.205V617.887C501.205 617.838 501.195 617.79 501.177 617.744C501.158 617.699 501.13 617.658 501.096 617.624C501.061 617.589 501.02 617.562 500.975 617.543C500.93 617.524 500.882 617.515 500.833 617.515H430.907C430.808 617.515 430.714 617.554 430.644 617.624C430.574 617.694 430.535 617.788 430.535 617.887V619.763H424.956V617.887C424.956 617.838 424.946 617.79 424.928 617.744C424.909 617.699 424.881 617.658 424.847 617.624C424.812 617.589 424.771 617.562 424.726 617.543C424.681 617.524 424.633 617.515 424.584 617.515H415.657C415.559 617.515 415.464 617.554 415.394 617.624C415.324 617.694 415.285 617.788 415.285 617.887V619.763H409.706V617.887C409.706 617.838 409.696 617.79 409.678 617.744C409.659 617.699 409.632 617.658 409.597 617.624C409.563 617.589 409.522 617.562 409.476 617.543C409.431 617.524 409.383 617.515 409.334 617.515H400.407C400.309 617.515 400.214 617.554 400.144 617.624C400.075 617.694 400.035 617.788 400.035 617.887V619.763H394.456V617.887C394.456 617.838 394.447 617.79 394.428 617.744C394.409 617.699 394.382 617.658 394.347 617.624C394.313 617.589 394.272 617.562 394.227 617.543C394.182 617.524 394.133 617.515 394.084 617.515H385.158C385.059 617.515 384.964 617.554 384.895 617.624C384.825 617.694 384.786 617.788 384.786 617.887V619.763H379.206V617.887C379.206 617.838 379.197 617.79 379.178 617.744C379.159 617.699 379.132 617.658 379.098 617.624C379.063 617.589 379.022 617.562 378.977 617.543C378.932 617.524 378.883 617.515 378.835 617.515H369.908C369.809 617.515 369.715 617.554 369.645 617.624C369.575 617.694 369.536 617.788 369.536 617.887V619.763H363.957V617.887C363.957 617.838 363.947 617.79 363.928 617.744C363.91 617.699 363.882 617.658 363.848 617.624C363.813 617.589 363.772 617.562 363.727 617.543C363.682 617.524 363.634 617.515 363.585 617.515H354.658C354.559 617.515 354.465 617.554 354.395 617.624C354.325 617.694 354.286 617.788 354.286 617.887V619.763H348.707V617.887C348.707 617.838 348.697 617.79 348.679 617.744C348.66 617.699 348.632 617.658 348.598 617.624C348.563 617.589 348.522 617.562 348.477 617.543C348.432 617.524 348.384 617.515 348.335 617.515H339.408C339.31 617.515 339.215 617.554 339.145 617.624C339.075 617.694 339.036 617.788 339.036 617.887V619.763H321.927C319.559 619.763 317.289 620.703 315.615 622.377C313.94 624.051 313 626.322 313 628.689V632.726C313 635.093 313.94 637.364 315.615 639.038C317.289 640.712 319.559 641.653 321.927 641.653H618.74C621.107 641.653 623.378 640.712 625.052 639.038C626.726 637.364 627.667 635.093 627.667 632.726V628.689C627.667 626.322 626.726 624.051 625.052 622.377C623.378 620.703 621.107 619.763 618.74 619.763Z" fill="#3F3D56"/>
<path d="M379.708 358.977C378.083 361.148 377.099 363.731 376.868 366.433C376.538 369.722 375.575 374.982 372.772 377.747C368.503 381.96 367.08 385.119 367.08 385.119L368.503 386.699C368.503 383.54 370.401 383.013 370.401 383.013L369.926 386.699C382.734 398.81 411.196 387.752 411.196 387.752L410.247 378.274C412.619 379.327 413.567 386.699 413.567 386.699L417.362 385.646C417.362 385.646 410.721 374.061 406.452 363.53C402.183 352.998 395.542 355.631 395.542 355.631C387.715 351.448 382.545 355.327 379.708 358.977Z" fill="#2F2E41"/>
<path d="M424.266 364.402L428.866 334.352C428.866 334.352 423.96 322.394 432.238 321.168C440.517 319.941 434.998 335.579 434.998 335.579L432.238 364.402H424.266Z" fill="#FFB9B9"/>
<path d="M420.587 505.757C422.12 508.21 422.426 520.782 422.426 520.782L433.158 514.036L430.092 502.997L420.587 505.757Z" fill="#FFB9B9"/>
<path d="M405.562 439.832C405.562 439.832 392.07 439.832 384.711 444.125C382.346 445.505 381.659 447.993 381.817 450.735C382.229 457.899 388.079 463.556 395.241 463.999L415.987 465.282C412.921 473.868 419.973 507.29 419.973 507.29L431.012 505.757C431.012 505.757 429.479 494.412 429.785 493.799C430.092 493.185 432.852 469.268 431.012 456.697C429.172 444.125 404.029 449.338 404.029 449.338L405.562 439.832Z" fill="#2F2E41"/>
<path d="M421.813 518.022C421.813 518.022 420.893 526.914 421.2 528.141C421.507 529.367 434.078 529.981 445.423 526.608C456.769 523.235 443.89 519.555 443.89 519.555C443.89 519.555 436.225 514.343 434.078 512.503C431.932 510.663 428.866 514.956 428.866 514.956C428.252 517.715 421.813 518.022 421.813 518.022Z" fill="#2F2E41"/>
<path d="M402.966 376.595C403.943 370.577 399.856 364.907 393.838 363.931C387.821 362.954 382.151 367.041 381.174 373.058C380.198 379.076 384.284 384.746 390.302 385.723C396.32 386.699 401.99 382.613 402.966 376.595Z" fill="#FFB9B9"/>
<path d="M387.471 383.106C391.457 388.932 386.551 392.305 386.551 392.305L384.405 408.25C384.405 408.25 407.402 410.396 411.388 407.33C415.374 404.263 406.788 394.145 403.722 393.225C400.656 392.305 400.043 379.733 400.043 379.733L387.471 383.106Z" fill="#FFB9B9"/>
<path d="M388.071 390.671L375.972 388.779L374.593 401.81C374.593 401.81 375.206 430.94 374.593 436.153C373.979 441.365 385.018 447.191 385.018 447.191C385.018 447.191 400.963 445.965 404.029 444.432C407.095 442.898 416.907 445.965 416.907 445.965C418 446.025 419.094 445.869 420.127 445.505C421.966 444.892 415.374 401.197 415.374 401.197L409.548 387.706L402.496 390.465L400.349 400.584L388.071 390.671Z" fill="#6C63FF"/>
<path d="M414.148 400.89L426.413 385.252L434.998 364.095L423.04 359.496L418.134 376.974L409.548 387.399L409.241 389.239L414.148 400.89Z" fill="#6C63FF"/>
<path d="M375.499 424.695L405.877 425.838C405.877 425.838 417.198 419.601 419.361 427.686C421.523 435.771 405.358 432.071 405.358 432.071L376.408 432.615L375.499 424.695Z" fill="#FFB9B9"/>
<path d="M378.119 422.508L392.224 423.428L394.063 432.933C394.063 432.933 376.892 432.626 370.146 432.32C363.401 432.013 370.147 403.497 371.066 394.911C371.986 386.326 376.586 388.779 376.586 388.779L379.345 390.925L378.119 422.508Z" fill="#6C63FF"/>
<path opacity="0.15" d="M380.572 419.441L392.837 424.348L379.345 421.588L378.425 404.11L380.572 419.441Z" fill="black"/>
<path d="M403.727 371.153L383.475 371.635L381.064 361.509H403.727V371.153Z" fill="#2F2E41"/>
</svg>
